<?xml version="1.0" encoding="UTF-8" standalone="no"?>
<!-- Created with Inkscape (http://www.inkscape.org/) -->

<svg
   width="424.6861"
   height="270.22409"
   viewBox="0 0 112.36487 71.496792"
   version="1.1"
   id="svg5"
   sodipodi:docname="drawing.svg"
   xmlns:inkscape="http://www.inkscape.org/namespaces/inkscape"
   xmlns:sodipodi="http://sodipodi.sourceforge.net/DTD/sodipodi-0.dtd"
   xmlns="http://www.w3.org/2000/svg"
   xmlns:svg="http://www.w3.org/2000/svg">
  <sodipodi:namedview
     id="namedview7"
     pagecolor="#ffffff"
     bordercolor="#000000"
     borderopacity="0.25"
     inkscape:showpageshadow="true"
     inkscape:pageopacity="0"
     inkscape:pagecheckerboard="0"
     inkscape:deskcolor="#d1d1d1"
     inkscape:document-units="px"
     showgrid="false"
     showborder="false"
     borderlayer="true"
     showguides="true"
     inkscape:zoom="0.5"
     inkscape:cx="1084"
     inkscape:cy="948"
     inkscape:window-width="1920"
     inkscape:window-height="1015"
     inkscape:window-x="0"
     inkscape:window-y="0"
     inkscape:window-maximized="1"
     inkscape:current-layer="layer1">
    <inkscape:grid
       type="axonomgrid"
       id="grid236"
       originx="67.733335"
       originy="67.733335"
       units="px"
       spacingy="3.1750001" />
  </sodipodi:namedview>
  <defs
     id="defs2" />
  <g
     inkscape:label="Layer 1"
     inkscape:groupmode="layer"
     id="layer1"
     transform="translate(-476.48828,-400.14124)">
    <g
       id="g9963"
       transform="matrix(3.310097,0,0,3.310097,-679.78799,188.98378)"
       style="stroke-width:0.302106"
       inkscape:export-filename="alpinemd.svg"
       inkscape:export-xdpi="96"
       inkscape:export-ydpi="96">
      <path
         style="fill:#00864e;fill-opacity:1;stroke:none;stroke-width:0.0799319;stroke-linecap:square;stroke-linejoin:round;stroke-dashoffset:64;paint-order:markers stroke fill"
         d="m 373.16501,67.733337 c 0.20265,0 0.42006,0.103 0.54101,0.3125 l 9.47266,16.40625 c 0.24152,0.41833 -0.058,0.93945 -0.54102,0.93945 h -18.94531 c -0.48297,0 -0.78253,-0.52113 -0.54101,-0.93945 l 9.47265,-16.40625 c 0.12095,-0.20949 0.33837,-0.3125 0.54102,-0.3125 z"
         id="path9959" />
      <path
         id="path9961"
         style="fill:#27e193;fill-opacity:1;stroke:none;stroke-width:0.0799319;stroke-linecap:square;stroke-linejoin:round;stroke-dashoffset:64;paint-order:markers stroke fill"
         d="m 361.69235,63.791929 c 0.20265,0 0.42004,0.102967 0.54102,0.3125 l 4.875,8.441408 c 0.52391,0.90744 0.52387,2.03011 0,2.9375 l -4.875,8.4414 c -0.52399,0.90758 -1.4932,1.4668 -2.54102,1.4668 h -9.74805 c -0.48297,0 -0.78253,-0.52112 -0.54101,-0.93945 l 11.74805,-20.347658 c 0.12094,-0.209476 0.33837,-0.3125 0.54101,-0.3125 z" />
    </g>
  </g>
</svg>
